<?xml version="1.0" standalone="no"?>
<!DOCTYPE svg PUBLIC "-//W3C//DTD SVG 20010904//EN"
 "http://www.w3.org/TR/2001/REC-SVG-20010904/DTD/svg10.dtd">
<svg version="1.0" xmlns="http://www.w3.org/2000/svg"
 width="700.000000pt" height="700.000000pt" viewBox="0 0 700.000000 700.000000"
 preserveAspectRatio="xMidYMid meet">
<metadata>
Created by potrace 1.11, written by Peter Selinger 2001-2013
</metadata>
<g transform="translate(0.000000,700.000000) scale(0.100000,-0.100000)"
fill="#000000" stroke="none">
<path d="M3453 6100 c-43 -10 -77 -33 -132 -89 -282 -288 -531 -679 -673
-1056 -57 -153 -121 -369 -143 -482 -6 -36 -26 -150 -31 -185 -2 -16 -6 -43
-9 -60 -26 -174 -26 -609 1 -775 2 -16 6 -41 9 -58 2 -16 7 -48 10 -70 4 -22
8 -47 10 -55 2 -8 7 -31 10 -50 35 -211 177 -615 287 -815 6 -11 25 -45 41
-75 68 -123 237 -376 303 -450 12 -14 53 -61 91 -105 148 -171 214 -212 308
-193 69 13 85 26 230 183 76 82 315 400 315 419 0 3 13 24 29 48 44 65 144
261 191 373 23 55 46 109 51 120 60 136 153 494 174 670 4 33 9 69 11 80 24
130 24 549 -1 745 -35 280 -127 624 -224 835 -16 33 -31 69 -35 81 -14 46
-153 297 -223 404 -154 234 -382 503 -458 542 -39 20 -102 28 -142 18z"/>
<path d="M1453 5425 c-92 -27 -127 -76 -162 -225 -23 -97 -56 -282 -68 -385
-10 -88 -11 -505 -1 -605 59 -588 282 -1135 653 -1600 139 -175 373 -400 550
-531 134 -98 142 -102 103 -39 -177 281 -358 748 -423 1087 -21 108 -24 124
-30 153 -3 14 -8 52 -11 84 -3 33 -7 62 -9 65 -17 29 -26 525 -12 701 9 114
40 330 61 420 8 36 17 77 20 91 9 53 48 188 98 337 30 89 47 156 42 161 -41
38 -370 185 -531 237 -195 63 -218 67 -280 49z"/>
<path d="M5395 5415 c-176 -49 -371 -126 -545 -214 -100 -51 -115 -61 -114
-82 1 -13 20 -78 43 -144 36 -104 84 -267 96 -323 2 -9 10 -51 19 -92 16 -80
41 -229 50 -295 27 -221 28 -620 1 -830 -2 -16 -7 -52 -10 -79 -3 -27 -12 -83
-20 -125 -8 -42 -17 -87 -20 -101 -43 -226 -133 -502 -245 -750 -58 -128 -142
-287 -187 -356 -8 -14 -14 -26 -12 -29 6 -5 173 119 269 201 164 139 382 369
460 485 8 12 24 34 36 48 22 28 144 210 144 216 0 2 19 36 43 77 122 209 252
536 302 759 27 121 45 214 50 259 3 30 8 62 10 70 20 79 29 581 12 700 -4 30
-10 71 -12 90 -13 105 -26 171 -56 299 -26 111 -41 143 -79 180 -59 56 -127
66 -235 36z"/>
<path d="M767 3924 c-1 -1 -34 -5 -73 -8 -39 -4 -80 -8 -90 -10 -11 -2 -41 -7
-67 -10 -27 -4 -59 -9 -70 -12 -12 -2 -49 -9 -82 -15 -99 -17 -194 -50 -226
-76 -64 -54 -87 -139 -62 -228 272 -977 1042 -1736 2013 -1985 118 -30 286
-62 400 -75 l55 -7 -108 66 c-161 97 -346 233 -501 366 -80 69 -280 276 -367
380 -355 423 -637 1022 -729 1546 l-13 71 -39 -1 c-22 -1 -40 -2 -41 -2z"/>
<path d="M6156 3921 c-4 -6 -13 -47 -22 -95 -2 -15 -12 -58 -20 -95 -9 -36
-18 -77 -20 -90 -3 -14 -7 -28 -10 -33 -3 -4 -7 -18 -9 -30 -8 -40 -76 -241
-118 -348 -45 -114 -195 -423 -209 -428 -4 -2 -8 -8 -8 -13 0 -17 -134 -222
-223 -341 -270 -362 -630 -684 -1012 -907 -38 -22 -63 -41 -55 -41 29 0 215
29 290 45 14 3 34 7 45 9 100 20 263 69 400 120 812 307 1448 990 1698 1821
36 123 38 178 6 236 -24 43 -87 96 -124 103 -11 3 -40 9 -65 16 -25 6 -54 13
-66 15 -12 1 -45 8 -75 14 -162 32 -395 56 -403 42z"/>
<path d="M281 2124 c-138 -109 -248 -220 -267 -270 -22 -57 -12 -139 22 -185
98 -134 439 -387 689 -512 171 -85 456 -184 610 -211 227 -39 327 -49 510 -50
165 0 328 13 460 39 136 26 240 53 370 97 128 43 132 47 45 49 -97 2 -140 4
-225 14 -38 4 -86 9 -105 11 -54 5 -245 43 -350 69 -288 71 -558 179 -822 329
-93 53 -153 89 -158 96 -3 4 -16 13 -30 20 -38 20 -195 138 -299 224 -95 80
-341 323 -341 338 0 20 -31 3 -109 -58z"/>
<path d="M6583 2148 c-444 -488 -1005 -822 -1643 -978 -69 -17 -138 -33 -155
-35 -16 -3 -41 -7 -55 -10 -125 -23 -320 -43 -452 -45 -38 -1 -68 -3 -68 -5 0
-1 33 -14 73 -29 283 -102 567 -151 882 -150 91 0 251 10 307 19 13 2 45 6 71
10 64 9 66 9 193 39 374 90 694 247 999 491 192 153 264 241 265 320 0 75 -18
107 -119 205 -88 85 -239 210 -254 210 -4 0 -23 -19 -44 -42z"/>
</g>
</svg>
